<svg width="41" height="14" viewBox="0 0 41 14" fill="none" xmlns="http://www.w3.org/2000/svg">
<path d="M0.0585938 2.54492H1.20703L4.17188 9.71094H4.23047L7.18359 2.54492H8.33203L4.76953 11H3.63281L0.0585938 2.54492ZM6.75 11L10.2188 2.53906H11.4961L15 11H13.875L13.0312 8.91406H8.71289L7.875 11H6.75ZM12.6504 7.97656L10.875 3.59375H10.8398L9.08789 7.97656H12.6504ZM16.6406 2.54492V10.0039H21.1113V11H15.5859V2.54492H16.6406ZM25.1426 11.1172C24.4668 11.1172 23.8789 10.9941 23.3789 10.748C22.8789 10.502 22.4941 10.1523 22.2246 9.69922C21.9551 9.24219 21.8203 8.70508 21.8203 8.08789V2.54492H22.875V8.08789C22.875 8.50195 22.9668 8.86133 23.1504 9.16602C23.334 9.4707 23.5957 9.70703 23.9355 9.875C24.2793 10.0391 24.6816 10.1211 25.1426 10.1211C25.6074 10.1211 26.0098 10.0391 26.3496 9.875C26.6934 9.70703 26.957 9.4707 27.1406 9.16602C27.3281 8.86133 27.4219 8.50195 27.4219 8.08789V2.54492H28.4766V8.08789C28.4766 8.70508 28.3418 9.24219 28.0723 9.69922C27.8027 10.1523 27.416 10.502 26.9121 10.748C26.4121 10.9941 25.8223 11.1172 25.1426 11.1172ZM29.6484 2.55078H35.2852V3.48828H30.7031V6.25391H34.9102V7.19141H30.7031V10.0625H35.2852V11H29.6484V2.55078Z" fill="black"/>
<path d="M36.9563 1.92695L38.4504 4.02578H38.4715L39.9938 1.92695H40.8094L38.9074 4.43008L40.8094 7H39.9938L38.4715 4.86953H38.4504L36.8859 7H36.0703L38.0109 4.43008L36.1406 1.92695H36.9563Z" fill="black"/>
</svg>
